<svg width="2905" height="2931" viewBox="0 0 2905 2931" fill="none" xmlns="http://www.w3.org/2000/svg">
<ellipse cx="1452.5" cy="1465.5" rx="1452.5" ry="1465.5" fill="white"/>
<path d="M1585.95 800.463C1638.7 699.052 1695.45 622.673 1756.34 571.241C1817.17 519.887 1885.83 490.327 1962.26 482.712C2003.38 478.615 2037.82 485.884 2065.51 504.379C2093.21 522.947 2109.01 549.443 2112.9 583.794C2115 602.347 2112.87 620.369 2106.49 637.788C2100.09 655.062 2091.14 670.611 2079.66 684.434C2068.15 698.113 2053.94 709.79 2037.14 719.451C2020.49 729.173 2003.24 734.848 1985.56 736.611C1972.65 737.897 1964.14 736.546 1960.01 732.413C1956 728.122 1949.81 714.961 1941.44 692.929C1939.62 687.833 1934.35 683.374 1925.56 679.56C1916.77 675.745 1908.31 674.242 1900.24 675.046C1842.53 680.796 1794.8 721.61 1756.92 797.5C1812.2 801.374 1863.53 813.702 1910.98 834.333C1958.57 855.023 2000.34 882.596 2036.31 917.122C2072.39 951.492 2102.05 992.583 2125.24 1040.48C2148.54 1088.21 2163.46 1140.37 2169.87 1196.97C2177.22 1261.76 2174.7 1324.16 2162.37 1384.17C2150.18 1444.23 2130.39 1497.73 2103 1544.58C2075.52 1591.29 2042.14 1629.65 2002.7 1659.52C1963.27 1689.47 1920.05 1706.75 1873.05 1711.43C1810.69 1717.64 1757.26 1702.96 1712.68 1667.31C1668.24 1631.72 1642.6 1583.56 1635.72 1522.83C1633.02 1499.06 1633.03 1475.46 1635.77 1451.88C1638.44 1428.16 1642.78 1406.62 1648.81 1387.26C1654.97 1367.88 1662.97 1352.06 1672.93 1339.71C1682.83 1327.43 1693.1 1320.69 1703.82 1319.63C1712.08 1318.8 1717.86 1320.28 1721.29 1324.04C1724.64 1327.67 1730.15 1337.09 1737.81 1352.3C1748.77 1375.25 1764.84 1385.66 1786.01 1383.55C1800.08 1382.15 1813.31 1375.56 1825.55 1363.79C1837.91 1351.85 1848.37 1336.45 1856.87 1317.57C1865.48 1298.54 1871.76 1277.9 1875.7 1255.6C1879.74 1233.13 1880.45 1209.98 1877.75 1186.21C1871.47 1130.77 1851.18 1085.37 1816.89 1050.09C1782.6 1014.81 1738.25 993.871 1683.88 987.121C1670.01 1043.25 1659.39 1088.36 1651.97 1122.51C1644.48 1156.68 1637.9 1190.76 1632.22 1224.74C1629.92 1235.53 1628.41 1243 1627.71 1247.18C1626.93 1251.21 1626.33 1254.57 1625.99 1257.32C1625.79 1260.12 1625.26 1263.55 1624.56 1267.72C1623.97 1271.74 1623.03 1279.01 1621.83 1289.69C1618.03 1319.6 1612.84 1365.92 1606.25 1428.73C1599.77 1491.38 1591.91 1571.17 1582.74 1668.23C1558.75 1897.75 1498.74 2076.69 1402.57 2205.07C1306.53 2333.44 1178.02 2405.69 1016.9 2421.74C958.023 2427.6 902.728 2423 851.094 2408.06C799.411 2393.28 753.669 2370.42 713.819 2339.66C674.114 2309.02 641.544 2270.49 616.126 2224.21C590.659 2178.08 574.77 2126.61 568.33 2069.79C559.811 1994.64 569.898 1921.22 598.722 1849.53C627.489 1777.92 670.114 1718.56 726.596 1671.45C764.718 1640.9 806.733 1615.31 852.639 1594.69C898.488 1574.15 941.417 1561.81 981.375 1557.83C1010.81 1554.89 1035.27 1558.17 1054.81 1567.51C1074.28 1576.93 1085.13 1590.87 1087.24 1609.43C1088.14 1617.4 1087.67 1624.19 1085.89 1629.79C1084.03 1635.25 1076.24 1650.03 1062.44 1674.05C1056.68 1686.57 1054.77 1700.76 1056.56 1716.56C1059.25 1740.33 1070.98 1760.26 1091.8 1776.37C1112.54 1792.33 1135.94 1798.94 1161.96 1796.35C1192.43 1793.31 1222.94 1780.3 1253.63 1757.31C1284.43 1734.16 1309.62 1704.17 1329.35 1667.39C1345.1 1639.29 1358.6 1606.94 1369.8 1570.43C1381.11 1533.76 1393.73 1482.08 1407.59 1415.39C1416.27 1375.69 1424.22 1338.1 1431.38 1302.8C1438.65 1267.33 1447.12 1233.73 1456.78 1202.06L1503.25 1045.28C1504.7 1038.54 1506.54 1031.69 1508.76 1024.8C1510.9 1017.77 1512.79 1010.84 1514.5 1004C1481.16 1013.99 1455.42 1023.59 1437.33 1032.79C1419.36 1041.84 1401.73 1053.93 1384.52 1069.13C1366.16 1085.62 1351.43 1105.48 1340.35 1128.64C1329.38 1151.65 1324.87 1171.74 1326.81 1188.92C1328.46 1203.41 1332.86 1214.04 1340.08 1220.72C1347.41 1227.25 1363.4 1234.67 1388.03 1242.91C1397.92 1246.03 1403.67 1254.18 1405.16 1267.3C1408.17 1293.82 1396.69 1329.63 1370.86 1374.79C1342.74 1420.39 1310.04 1456.77 1272.78 1483.94C1235.43 1510.97 1196.13 1526.46 1154.81 1530.58C1092.45 1536.79 1038.73 1521.84 993.564 1485.67C948.513 1449.33 922.5 1400.11 915.468 1338.07C906.053 1255.02 926.718 1175.86 977.592 1100.58C1028.6 1025.36 1105.74 960.586 1209.13 906.312C1317.96 849.956 1432.96 815.705 1554.19 803.627L1585.95 800.463Z" fill="#6C55E1"/>
<path d="M2280.95 1645.2C2277.56 1665.64 2275.88 1679.84 2275.88 1687.75C2275.88 1698.43 2278.75 1707.56 2284.53 1715.07C2290.27 1722.63 2296.91 1726.39 2304.36 1726.39C2309.81 1726.39 2316.96 1724.2 2325.84 1719.76C2335.98 1714.44 2343.43 1711.75 2348.2 1711.75C2352.98 1711.75 2357.04 1714.05 2360.43 1718.58C2363.79 1723.02 2365.5 1728.29 2365.5 1734.39C2365.5 1749.62 2359.87 1765.23 2348.65 1781.24C2337.5 1797.24 2323.23 1811.98 2305.85 1825.35C2288.56 1838.62 2269.54 1849.7 2248.89 1858.53C2228.2 1867.36 2208.33 1871.8 2189.24 1871.8C2165.46 1871.8 2146.3 1863.8 2131.68 1847.79C2117.07 1831.79 2109.09 1809.64 2107.82 1781.24C2083.97 1809.64 2058.61 1831.79 2031.77 1847.79C2005.01 1863.8 1980.4 1871.8 1957.96 1871.8C1931.49 1871.8 1909.24 1861.55 1891.15 1841.16C1873.15 1820.76 1864.16 1795.83 1864.16 1766.4C1864.16 1762.89 1864.31 1759.18 1864.61 1755.28C1864.98 1751.28 1865.54 1746.98 1866.25 1742.4L1903.98 1505.06C1905.95 1493.49 1906.96 1482.37 1906.96 1471.68C1906.96 1460.12 1905.25 1450.99 1901.89 1444.36C1898.5 1437.72 1892.05 1430.84 1882.51 1423.67C1905.66 1398.83 1929.11 1379.51 1952.89 1365.7C1976.64 1351.94 1998.37 1345.01 2018.05 1345.01C2036.43 1345.01 2050.9 1351.45 2061.45 1364.33C2071.96 1377.21 2077.25 1395.27 2077.25 1418.4C2077.25 1427.28 2076.88 1433.04 2076.21 1435.77L2046.69 1621.19C2044.6 1631.88 2043.55 1641.2 2043.55 1649.1C2043.55 1658.86 2046.09 1666.86 2051.16 1673.11C2056.3 1679.35 2062.98 1682.48 2071.14 1682.48C2085.34 1682.48 2096.86 1676.03 2105.74 1663.15C2114.57 1650.27 2121.69 1629.58 2127.06 1601.09L2144.51 1505.06C2145.77 1497.93 2146.78 1491.69 2147.49 1486.32C2148.16 1481 2148.53 1475.68 2148.53 1470.32C2149.2 1459.68 2147.53 1450.99 2143.46 1444.36C2139.36 1437.72 2131.87 1430.84 2120.95 1423.67C2147.49 1396.1 2171.8 1376.14 2193.87 1363.75C2215.94 1351.26 2237.86 1345.01 2259.63 1345.01C2277.22 1345.01 2291.28 1351.26 2301.83 1363.75C2312.34 1376.14 2317.63 1392.98 2317.63 1414.3C2317.63 1419.67 2316.96 1426.79 2315.7 1435.77L2280.95 1645.2Z" fill="#6C55E1"/>
<path d="M2343.86 1697.69C2366.23 1697.69 2386.88 1700.62 2405.89 1706.47C2424.98 1712.23 2441.46 1720.04 2455.4 1729.89C2469.31 1739.65 2480.15 1751.46 2487.91 1765.22C2495.74 1778.88 2499.69 1793.72 2499.69 1809.72C2499.69 1827.58 2494.77 1842.9 2484.93 1855.78C2475.08 1868.67 2463.34 1875.11 2449.73 1875.11C2440.27 1875.11 2431.47 1872.08 2423.34 1865.93C2415.18 1859.69 2404.29 1848.56 2390.68 1832.56C2374.35 1811.23 2360.79 1800.55 2349.97 1800.55C2344.49 1800.55 2339.87 1802.79 2336.11 1807.18C2332.42 1811.63 2330.59 1816.94 2330.59 1823.19C2330.59 1828.56 2331.22 1833.24 2332.53 1837.24C2333.91 1841.15 2336.78 1845.59 2341.18 1850.51C2345.65 1855.35 2352.29 1861.35 2361.16 1868.47C2369.99 1875.64 2382.22 1884.57 2397.84 1895.21C2450.11 1933.47 2476.28 1979.28 2476.28 2032.62C2476.28 2061.89 2471.36 2088.59 2461.51 2112.64C2451.67 2136.6 2437.88 2157.29 2420.21 2174.71C2402.5 2192.03 2381.44 2205.3 2356.98 2214.52C2332.53 2223.89 2305.39 2228.58 2275.56 2228.58C2251.11 2228.58 2228.81 2225.26 2208.76 2218.62C2188.78 2211.99 2171.63 2202.91 2157.31 2191.3C2143.07 2179.73 2132.04 2165.73 2124.21 2149.33C2116.34 2132.84 2112.43 2114.35 2112.43 2093.9C2112.43 2069.85 2118.39 2049.6 2130.32 2033.2C2142.25 2016.81 2157.01 2008.61 2174.61 2008.61C2193.7 2008.61 2212.37 2017.93 2230.68 2036.52C2232.06 2038.38 2235.3 2042.86 2240.37 2049.99C2245.44 2057.01 2252.04 2066.77 2260.2 2079.27C2277.2 2103.22 2293.16 2115.18 2308.07 2115.18C2314.22 2115.18 2319.48 2112.35 2323.88 2106.59C2328.35 2100.74 2330.59 2093.85 2330.59 2085.9C2330.59 2081.51 2329.88 2077.51 2328.5 2074C2327.08 2070.38 2324.36 2066.14 2320.3 2061.31C2316.2 2056.38 2310.23 2050.38 2302.41 2043.35C2294.65 2036.23 2284.29 2027.3 2271.39 2016.61C2253.08 2001.39 2238.17 1987.63 2226.65 1975.23C2215.1 1962.74 2205.78 1950.74 2198.62 1939.13C2191.46 1927.56 2186.47 1915.61 2183.71 1903.21C2181.02 1890.72 2179.68 1876.47 2179.68 1860.47C2179.68 1838.22 2184.08 1817.33 2192.95 1797.82C2201.79 1778.3 2213.53 1761.22 2228.14 1746.48C2242.76 1731.8 2260.06 1720.04 2280.04 1711.16C2300.09 1702.18 2321.38 1697.69 2343.86 1697.69Z" fill="#6C55E1"/>
</svg>
